<svg height="2vw" viewBox="0 0 25 24" fill="none" xmlns="http://www.w3.org/2000/svg">
    <path d="M12.1215 1.99976C6.60746 1.99976 2.12146 6.48576 2.12146 11.9998C2.12146 17.5138 6.60746 21.9998 12.1215 21.9998C17.6355 21.9998 22.1215 17.5138 22.1215 11.9998C22.1215 6.48576 17.6355 1.99976 12.1215 1.99976ZM10.1225 16.4128L7.11691 13.4137C6.72616 13.0238 6.72537 12.391 7.11515 12.0001C7.50517 11.6089 8.13847 11.6082 8.52939 11.9985L10.1205 13.5868L14.7075 8.99976C15.0979 8.60929 15.731 8.60929 16.1215 8.99976C16.5119 9.39022 16.5119 10.0233 16.1215 10.4138L10.1225 16.4128Z" fill="#2FAB73"/>
</svg>