<svg height="100%" viewBox="0 0 35 34" fill="none" xmlns="http://www.w3.org/2000/svg">
    <path d="M34.5645 16.9787C34.5644 13.8328 33.6413 10.7528 31.9046 8.10353C30.1678 5.45424 27.6902 3.34661 24.765 2.03024C21.8399 0.713879 18.5897 0.243925 15.3996 0.676037C12.2094 1.10815 9.2129 2.42423 6.76484 4.46841C4.31677 6.51259 2.51975 9.19923 1.58658 12.2102C0.653407 15.2211 0.623188 18.4302 1.4995 21.4574C2.37581 24.4846 4.12193 27.2031 6.53109 29.2909C8.94024 31.3787 11.9115 32.7484 15.093 33.2377V21.7335H10.8017V16.9787H15.093V13.3528C15.093 9.22706 17.5893 6.94962 21.4462 6.94962C22.7099 6.96689 23.9706 7.07447 25.2182 7.27149V11.3216H23.0938C20.9993 11.3216 20.3478 12.5896 20.3478 13.8917V16.9787H25.0209L24.272 21.7335H20.3478V33.2353C24.3108 32.6223 27.9198 30.6482 30.5258 27.6683C33.1319 24.6883 34.564 20.8979 34.5645 16.9787Z" fill="#F53838"/>
    <path d="M24.4696 21.7313L25.2355 16.9754H20.4563V13.8917C20.4563 12.59 21.1227 11.3224 23.2646 11.3224H25.4372V7.27343C24.1613 7.07647 22.872 6.96893 21.5796 6.95166C17.6353 6.95166 15.0823 9.22845 15.0823 13.353V16.9778H10.6937V21.7313H15.0823V33.2298C16.867 33.4963 18.6843 33.4963 20.4691 33.2298V21.7313H24.4696Z" fill="white"/>
</svg>