<svg viewBox="0 0 240 95" fill="none" xmlns="http://www.w3.org/2000/svg">
    <path fill-rule="evenodd" clip-rule="evenodd" d="M128.44 33.7664C142.485 35.2618 154.349 41.7887 160.421 50.7612L164.445 48.0678C155.046 38.6682 142.714 32.7674 129.497 31.3457L128.44 33.7664Z" fill="#E52421"/>
    <path fill-rule="evenodd" clip-rule="evenodd" d="M142.443 25.6862C156.613 27.9003 169.03 32.3948 178.3 38.4012C168.287 26.9585 151.862 18.7875 132.752 16.5815L148.078 23.2076L142.443 25.6862Z" fill="#E52421"/>
    <path fill-rule="evenodd" clip-rule="evenodd" d="M80.1074 48.0678L84.131 50.7612C89.9721 42.1275 101.167 35.7741 114.535 33.973L113.486 31.5522C100.847 33.2463 89.1176 39.053 80.1074 48.076" fill="#E52421"/>
    <path fill-rule="evenodd" clip-rule="evenodd" d="M94.8136 23.2077L109.437 16.8542C91.3188 19.4733 75.8525 27.4377 66.2439 38.4095C75.2577 32.5684 87.2209 28.1648 100.886 25.8762L94.8136 23.2077Z" fill="#E52421"/>
    <path fill-rule="evenodd" clip-rule="evenodd" d="M115.014 29.6602L121.442 44.4656L127.878 29.6602L142.675 23.2325L142.576 23.1912H135.355L135.454 23.2325L125.688 27.4791L121.442 37.2447L117.203 27.4791L107.438 23.2325L107.529 23.1912H100.308L100.209 23.2325L115.014 29.6602Z" fill="#FFD600"/>
    <mask id="mask0_1_208" style="mask-type:luminance" maskUnits="userSpaceOnUse" x="100" y="2" width="43" height="22">
    <path d="M115.014 16.8049L100.308 23.1913H107.529L117.195 18.9943L121.442 9.22871L125.688 18.9943L135.355 23.1913H142.576L127.878 16.8049L121.442 2.00781L115.014 16.8049Z" fill="white"/>
    </mask>
    <g mask="url(#mask0_1_208)">
    <path d="M142.576 1.99951H100.308V23.1913H142.576V1.99951Z" fill="url(#paint0_linear_1_208)"/>
    </g>
    <path fill-rule="evenodd" clip-rule="evenodd" d="M25.9176 52.5043L22.4889 57.0814H17.7631L13.7891 71.5563H3.11477L7.08048 57.0814H11.7732L11.8889 56.6187H5.91555C4.33582 56.6315 2.81086 56.0405 1.65241 54.9664C0.934393 54.2648 0.371485 53.4204 3.05176e-05 52.4878L25.9176 52.5043Z" fill="black"/>
    <path fill-rule="evenodd" clip-rule="evenodd" d="M41.3426 61.8322C40.7064 61.2208 39.5663 60.9234 37.9139 60.9234C35.8236 60.9234 33.9895 62.2783 32.428 64.9965C31.5574 66.6425 30.841 68.3656 30.2882 70.1437L29.7759 71.5565H20.977L24.9179 57.3543C31.3897 57.0844 35.4491 56.9467 37.096 56.9412C39.5745 56.9412 40.8964 57.2386 40.946 57.8252L41.3426 61.8322Z" fill="black"/>
    <path fill-rule="evenodd" clip-rule="evenodd" d="M66.9545 57.3293L63.0136 71.581H54.4046L55.4456 67.8219C54.6953 69.0516 53.6364 70.0638 52.3741 70.758C51.1118 71.4522 49.6899 71.8043 48.2495 71.7793C46.7842 71.8466 45.3359 71.4411 44.1186 70.6226C43.4898 70.1728 42.9718 69.5855 42.6039 68.9055C42.236 68.2256 42.0279 67.4707 41.9953 66.6982C41.9953 66.3678 41.9457 66.0538 41.9457 65.7481C41.9193 64.4134 42.2415 63.0948 42.8804 61.9227C43.5194 60.7505 44.4531 59.7653 45.5892 59.0642C47.6811 57.6639 50.1528 56.94 52.6696 56.9905C58.7614 56.9905 63.5175 57.1007 66.938 57.321M57.255 60.5101H55.1152C53.7024 60.5101 52.6366 61.3363 51.8104 63.0795C51.3579 64.0229 51.1047 65.0495 51.0668 66.0951C51.0668 67.1967 51.4221 67.7475 52.1326 67.7475C53.0993 67.7475 54.0494 67.0618 54.9665 65.682C55.6681 64.5975 56.2236 63.4252 56.6188 62.1955L57.255 60.5101Z" fill="black"/>
    <path fill-rule="evenodd" clip-rule="evenodd" d="M91.2114 60.9315C91.2743 61.926 91.1511 62.9235 90.8479 63.8728L88.6667 71.5563H79.7191L81.8755 63.8645C82.0737 63.154 82.3712 62.27 82.7512 61.2124C81.776 61.1578 80.8129 61.4505 80.0331 62.0386C78.8929 63.0025 77.5793 65.6959 76.0921 70.1188L75.6212 71.5315H66.7975L70.7715 57.3211L84.5606 56.9906C88.7411 56.8915 90.9443 58.1968 91.1701 60.9067" fill="black"/>
    <path fill-rule="evenodd" clip-rule="evenodd" d="M111.164 61.799C109.755 60.8224 108.069 60.3269 106.355 60.3863C105.879 60.3823 105.406 60.452 104.951 60.5928C104.315 60.7828 104.009 61.0885 104.05 61.5099C104.092 61.9312 104.629 62.3774 105.661 62.9557C107.248 63.8397 108.206 64.4015 108.528 64.6081C108.972 64.8751 109.353 65.2348 109.646 65.6625C109.938 66.0903 110.135 66.576 110.222 67.0867C110.371 68.5683 109.421 69.7608 107.372 70.6641C105.279 71.5332 103.027 71.9526 100.762 71.8951C99.1321 71.9128 97.5052 71.7465 95.9124 71.3994C94.0783 70.978 93.1447 70.4988 93.0869 69.9701C93.0669 69.8914 93.0669 69.8091 93.0869 69.7305L93.9957 66.5496C95.2438 67.7046 96.8651 68.3731 98.5645 68.4333C99.3081 68.4333 99.6633 68.1524 99.6055 67.6072C99.5473 67.2081 99.4053 66.8258 99.1889 66.4855C98.9725 66.1451 98.6865 65.8545 98.3497 65.6326C97.9366 65.3434 97.2013 64.8064 96.152 63.9802C95.7501 63.7029 95.4209 63.3329 95.1923 62.9014C94.9636 62.47 94.8422 61.9899 94.8384 61.5016C94.8384 59.7914 96.0612 58.5356 98.5232 57.7259C100.453 57.1411 102.463 56.8623 104.48 56.8997C106.652 56.8549 108.812 57.2425 110.833 58.0399L111.164 61.799Z" fill="black"/>
    <path fill-rule="evenodd" clip-rule="evenodd" d="M125.259 57.354L121.4 71.581H112.486L116.369 57.354H125.259ZM126.969 53.7766C127.043 54.6028 126.44 55.2472 125.184 55.6603C124.29 55.9594 123.352 56.1101 122.408 56.1064C121.264 56.1303 120.123 55.957 119.037 55.5942C117.873 55.1728 117.253 54.5532 117.17 53.7353C117.088 52.9173 117.583 52.3225 118.616 51.8681C119.601 51.4652 120.659 51.2738 121.723 51.3063C122.863 51.2816 123.999 51.4607 125.077 51.835C126.258 52.2729 126.886 52.9256 126.969 53.7766Z" fill="#E52421"/>
    <path fill-rule="evenodd" clip-rule="evenodd" d="M162.338 60.7747C162.405 61.8182 162.282 62.8652 161.975 63.8646L159.777 71.5565H150.829L152.994 63.8729C153.192 63.1514 153.481 62.2673 153.861 61.2208C152.891 61.1644 151.933 61.4575 151.16 62.047C150.363 62.8611 149.749 63.8356 149.359 64.9056C148.995 65.7594 148.353 67.4999 147.434 70.1272L146.946 71.5399H138.007L140.18 63.8564C140.37 63.1376 140.659 62.2536 141.006 61.2043C140.036 61.1478 139.077 61.4409 138.304 62.0305C137.159 62.9944 135.839 65.6878 134.347 70.1106L133.876 71.5565H125.077L129.051 57.3377C133.969 57.0733 138.494 56.9412 142.625 56.9412C145.142 56.9412 146.971 57.3928 148.111 58.2961C150.099 57.3928 153.112 56.9412 157.15 56.9412C160.372 56.9412 162.101 58.219 162.338 60.7747Z" fill="#E52421"/>
    <path fill-rule="evenodd" clip-rule="evenodd" d="M188.016 62.0386C188.046 62.3599 188.06 62.6825 188.057 63.0052C188.095 64.3375 187.793 65.6574 187.18 66.841C186.567 68.0246 185.664 69.033 184.554 69.7717C182.506 71.2359 180.041 72.0007 177.523 71.9529C175.05 71.9529 173.304 71.3828 172.285 70.2427L170.633 76.2408H161.479L166.923 57.3623C172.982 57.098 177.471 56.9658 180.39 56.9658C182.046 56.8788 183.701 57.1405 185.248 57.7341C186.064 58.1238 186.755 58.7329 187.244 59.4932C187.733 60.2534 188 61.1348 188.016 62.0386ZM179.688 61.2124H177.854C177.403 61.1851 176.951 61.2575 176.532 61.4246C176.112 61.5917 175.734 61.8493 175.425 62.179C174.459 63.564 173.751 65.1117 173.335 66.7479L173.004 67.7889L173.673 68.1607C174.104 68.3442 174.569 68.4316 175.037 68.4168C176.532 68.4168 177.755 66.9709 178.721 64.0793L179.688 61.2124Z" fill="#E52421"/>
    <path fill-rule="evenodd" clip-rule="evenodd" d="M212.124 61.5511C212.273 63.1264 211.221 64.2087 208.968 64.798C207.335 65.1286 205.677 65.3165 204.011 65.3599L199.839 65.5995C199.805 65.7323 199.805 65.8714 199.839 66.0043C199.971 67.4198 201.588 68.1248 204.689 68.1193C206.772 68.1984 208.843 67.7554 210.712 66.8305L209.803 70.0857C209.712 70.3914 209.406 70.6557 208.877 70.9119C206.871 71.6579 204.737 72.0004 202.598 71.9198C200.201 71.9578 197.818 71.5401 195.576 70.6888C192.679 69.5321 191.112 67.7338 190.875 65.2938C190.875 65.079 190.875 64.8641 190.875 64.6493C190.875 62.1708 192.293 60.2127 195.13 58.7751C197.562 57.5561 200.25 56.9358 202.97 56.9658C205.332 56.8612 207.68 57.3708 209.786 58.4447C211.265 59.2708 212.066 60.3449 212.182 61.5759M205.325 60.5349C204.597 60.433 203.862 60.3888 203.127 60.4027C201.601 60.4027 200.599 61.3501 200.12 63.2448L201.772 63.1126C202.358 63.0884 202.94 63.0193 203.515 62.9061C203.807 62.8683 204.083 62.7535 204.316 62.5734C204.548 62.3933 204.728 62.1545 204.837 61.8816L205.325 60.5349Z" fill="#E52421"/>
    <path fill-rule="evenodd" clip-rule="evenodd" d="M240 57.3293L230.342 64.6163L237.092 71.5811H227.838L224.748 67.9955L220.32 71.5811H211.125L220.89 64.3768L214.041 57.3293H223.592L226.599 60.8076L230.813 57.3293H240Z" fill="#E52421"/>
    <path fill-rule="evenodd" clip-rule="evenodd" d="M125.688 18.986L121.442 9.22046L117.203 18.986L107.438 23.2326L117.203 27.4793L121.442 37.2448L125.688 27.4793L135.454 23.2326L125.688 18.986Z" fill="#FFD600"/>
    <path fill-rule="evenodd" clip-rule="evenodd" d="M120.739 1.72684L114.427 16.2513L98.2836 23.2078L114.427 30.2304L121.483 46.3989L128.497 30.2552L144.616 23.2078L128.464 16.1934L121.483 0.0744629L120.739 1.72684ZM115.32 17.5071L115.601 17.3914L121.483 3.93277L127.266 17.4245L140.742 23.2078L127.266 29.082C127.266 29.082 122.565 39.9629 121.483 42.5324L115.642 29.082L102.142 23.2078L115.32 17.4823" fill="black"/>
    <path fill-rule="evenodd" clip-rule="evenodd" d="M121.442 18.358L112.957 15.012L116.303 23.5052L112.957 31.9984L121.442 28.6441L129.935 31.9984L126.589 23.5052L129.935 15.012L121.442 18.358Z" fill="#FFD600"/>
    <path fill-rule="evenodd" clip-rule="evenodd" d="M129.803 15.144L126.515 23.505L129.72 31.643L134.727 36.658V35.7079L129.918 23.505L134.355 12.2358L134.297 10.5173L129.803 15.144Z" fill="#FFD600"/>
    <mask id="mask1_1_208" style="mask-type:luminance" maskUnits="userSpaceOnUse" x="107" y="9" width="29" height="10">
    <path d="M121.442 15.0365L107.62 9.58367L113.246 15.21L121.442 18.4404L129.885 15.1522L134.297 10.5173L134.355 12.244L135.429 9.51758L121.442 15.0365Z" fill="white"/>
    </mask>
    <g mask="url(#mask1_1_208)">
    <path d="M121.519 -4.38205L103.157 13.9795L121.519 32.341L139.881 13.9795L121.519 -4.38205Z" fill="url(#paint1_linear_1_208)"/>
    </g>
    <path fill-rule="evenodd" clip-rule="evenodd" d="M134.991 36.658L129.885 31.643L129.976 31.8661L121.442 28.5696L112.915 31.8661L108.074 36.5258L107.9 35.6996L107.182 37.4924L121.442 31.9817L135.71 37.4924L134.991 35.7079V36.658Z" fill="#FFD600"/>
    <mask id="mask2_1_208" style="mask-type:luminance" maskUnits="userSpaceOnUse" x="107" y="9" width="10" height="28">
    <path d="M112.973 23.505L108.165 35.6995L108.338 36.534L113.081 31.866L116.377 23.505L113.081 15.1439L113.246 15.21L107.62 9.58367L107.463 9.51758L112.973 23.505Z" fill="white"/>
    </mask>
    <g mask="url(#mask2_1_208)">
    <path d="M111.921 5.05915L93.9571 23.0234L111.921 40.9877L129.886 23.0234L111.921 5.05915Z" fill="url(#paint2_linear_1_208)"/>
    </g>
    <mask id="mask3_1_208" style="mask-type:luminance" maskUnits="userSpaceOnUse" x="107" y="9" width="10" height="28">
    <path d="M112.973 23.505L108.165 35.6995L108.338 36.534L113.081 31.866L116.377 23.505L113.081 15.1439L113.246 15.21L107.62 9.58367L107.463 9.51758L112.973 23.505Z" fill="white"/>
    </mask>
    <g mask="url(#mask3_1_208)">
    <path d="M116.377 9.51758H107.463V36.534H116.377V9.51758Z" fill="url(#paint3_radial_1_208)"/>
    </g>
    <path fill-rule="evenodd" clip-rule="evenodd" d="M135.148 8.80723L121.483 14.2023L106.091 8.15454L112.147 23.5052L106.091 38.8558L121.483 32.8081L136.834 38.8558L130.786 23.5052L136.834 8.15454L135.148 8.80723ZM113.667 23.7943L113.783 23.5052L108.826 10.8892L121.442 15.8464L134.066 10.8892L129.109 23.5052C129.109 23.5052 133.066 33.5681 134.066 36.1293L121.442 31.1722L108.826 36.1293L113.684 23.7943" fill="black"/>
    <path d="M81.735 87.7414C81.2283 90.1649 80.3608 91.8807 79.1325 92.8886C77.8189 93.9874 75.8278 94.541 73.1426 94.541H67.7807L70.5567 81.5285H75.7782C77.3928 81.4216 79.0043 81.78 80.4214 82.5612C80.9375 82.9243 81.3504 83.4152 81.6198 83.9858C81.8892 84.5564 82.0057 85.1872 81.9581 85.8164C81.9519 86.4674 81.8743 87.1157 81.7267 87.7497M76.9101 87.7497C77.0505 87.1196 77.1335 86.4781 77.1579 85.8329C77.1579 84.7506 76.6622 84.1806 75.6625 84.1806H74.6546L73.0022 91.8393H74.0762C74.411 91.8316 74.7383 91.7388 75.0274 91.5697C75.3165 91.4006 75.5578 91.1607 75.7286 90.8727C76.2918 89.9007 76.6726 88.8339 76.8522 87.7249" fill="#1D1D1B"/>
    <path d="M95.0945 81.512L94.541 84.1392H89.1625L88.6668 86.4526H93.8965L93.3347 88.9807H88.1297L87.5183 91.9054H93.0703L92.5168 94.5327H82.272L85.048 81.512H95.0945Z" fill="#1D1D1B"/>
    <path d="M114.642 81.512L111.883 94.5327H107.826L109.966 84.4449L105.562 94.5327H100.647L100.531 84.4449L98.391 94.5327H94.541L97.317 81.512H104.166L104.059 90.7983L107.768 81.512H114.642Z" fill="#1D1D1B"/>
    <path d="M121.855 81.512L119.079 94.5327H114.411L117.187 81.512H121.855Z" fill="#1D1D1B"/>
    <path d="M137.974 81.512L135.198 94.5327H128.365L127.556 85.0398L125.548 94.5327H121.623L124.399 81.512H131.249L132.033 90.9471L134.049 81.512H137.974Z" fill="#1D1D1B"/>
    <path d="M145.17 81.512L142.394 94.5327H137.718L140.494 81.512H145.17Z" fill="#1D1D1B"/>
    <path d="M161.281 81.512L158.505 94.5327H151.672L150.871 85.0398L148.863 94.5327H144.939L147.715 81.512H154.564L155.349 90.9471L157.356 81.512H161.281Z" fill="#1D1D1B"/>
    <path d="M174.665 82.0158L174.07 84.8084C173.719 84.5978 173.337 84.4445 172.938 84.354C172.335 84.1717 171.709 84.0798 171.079 84.0813C170.031 83.9954 168.988 84.2886 168.138 84.9075C167.462 85.5813 167.009 86.4465 166.841 87.3861C166.568 88.3801 166.418 89.404 166.395 90.4347C166.395 91.5253 166.791 92.0871 167.576 92.0871C167.966 92.1002 168.354 92.021 168.708 91.8558L169.609 87.5926H174.161L172.822 93.9295C172.049 94.1751 171.26 94.3656 170.46 94.4996C169.441 94.6903 168.406 94.7871 167.37 94.7887C165.852 94.9039 164.335 94.5429 163.032 93.756C162.545 93.3453 162.164 92.8227 161.922 92.2329C161.68 91.643 161.585 91.0033 161.644 90.3686C161.656 89.4929 161.759 88.6208 161.95 87.7661C162.897 83.4644 165.651 81.3136 170.212 81.3136C171.174 81.3017 172.134 81.3875 173.079 81.5697C173.647 81.6556 174.203 81.8138 174.731 82.0406" fill="#1D1D1B"/>
    <defs>
    <linearGradient id="paint0_linear_1_208" x1="100.32" y1="12.9882" x2="142.588" y2="12.9882" gradientUnits="userSpaceOnUse">
    <stop stop-color="#FFD706"/>
    <stop offset="0.01" stop-color="#FFD706"/>
    <stop offset="0.28" stop-color="white"/>
    <stop offset="0.44" stop-color="#FFD706"/>
    <stop offset="0.63" stop-color="white"/>
    <stop offset="1" stop-color="#FFD706"/>
    </linearGradient>
    <linearGradient id="paint1_linear_1_208" x1="113.939" y1="21.2498" x2="128.637" y2="6.55122" gradientUnits="userSpaceOnUse">
    <stop stop-color="#FFD706"/>
    <stop offset="0.1" stop-color="#FFD706"/>
    <stop offset="0.11" stop-color="#FFD706"/>
    <stop offset="0.32" stop-color="white"/>
    <stop offset="0.45" stop-color="#FFD706"/>
    <stop offset="0.6" stop-color="white"/>
    <stop offset="0.9" stop-color="#FFD706"/>
    <stop offset="1" stop-color="#FFD706"/>
    </linearGradient>
    <linearGradient id="paint2_linear_1_208" x1="105.033" y1="30.111" x2="119.019" y2="16.1251" gradientUnits="userSpaceOnUse">
    <stop stop-color="#FFD706"/>
    <stop offset="0.1" stop-color="#FFD706"/>
    <stop offset="0.11" stop-color="#FFD706"/>
    <stop offset="0.32" stop-color="white"/>
    <stop offset="0.45" stop-color="#FFD706"/>
    <stop offset="0.6" stop-color="white"/>
    <stop offset="0.9" stop-color="#FFD706"/>
    <stop offset="1" stop-color="#FFD706"/>
    </linearGradient>
    <radialGradient id="paint3_radial_1_208" cx="0" cy="0" r="1" gradientUnits="userSpaceOnUse" gradientTransform="translate(103.184 -3.07554) scale(40.5164 40.5164)">
    <stop stop-color="white"/>
    <stop offset="0.5" stop-color="white"/>
    <stop offset="0.85" stop-color="#FFD706"/>
    <stop offset="1" stop-color="#FFD706"/>
    </radialGradient>
    </defs>
</svg>