<svg height="100%" viewBox="0 0 35 34" fill="none" xmlns="http://www.w3.org/2000/svg">
    <path d="M17.7142 33.7739C27.0204 33.7739 34.5646 26.2486 34.5646 16.9656C34.5646 7.68258 27.0204 0.157227 17.7142 0.157227C8.408 0.157227 0.863831 7.68258 0.863831 16.9656C0.863831 26.2486 8.408 33.7739 17.7142 33.7739Z" fill="#F53838"/>
    <path d="M17.7129 8.25429C20.5238 8.25429 20.8556 8.25429 21.9651 8.3168C22.6333 8.3237 23.2952 8.4472 23.9216 8.68184C24.3767 8.85795 24.7902 9.12822 25.1357 9.47528C25.4812 9.82234 25.7509 10.2385 25.9276 10.6971C26.16 11.3295 26.2823 11.9978 26.2892 12.6724C26.3412 13.7925 26.3511 14.1275 26.3511 16.9654C26.3511 19.8033 26.3511 20.1383 26.2892 21.2584C26.2823 21.933 26.16 22.6012 25.9276 23.2337C25.752 23.6913 25.4838 24.1069 25.1401 24.4539C24.7964 24.8009 24.3848 25.0717 23.9315 25.249C23.3051 25.4836 22.6432 25.6071 21.975 25.614C20.8655 25.6665 20.5337 25.6765 17.7228 25.6765C14.912 25.6765 14.5801 25.6765 13.4706 25.614C12.8025 25.6071 12.1406 25.4836 11.5141 25.249C11.0609 25.0717 10.6493 24.8009 10.3056 24.4539C9.96186 24.1069 9.69364 23.6913 9.51805 23.2337C9.28564 22.6012 9.16332 21.933 9.15648 21.2584C9.08714 20.1383 9.08714 19.8033 9.08714 16.9654C9.08714 14.1275 9.08714 13.7925 9.14905 12.6724C9.15589 11.9978 9.27821 11.3295 9.51062 10.6971C9.68621 10.2395 9.95443 9.82392 10.2981 9.47692C10.6418 9.12991 11.0535 8.85912 11.5067 8.68184C12.1331 8.4472 12.7951 8.3237 13.4632 8.3168C14.5727 8.26429 14.9045 8.25429 17.7154 8.25429M17.7154 6.33904C14.8575 6.33904 14.4959 6.35155 13.3765 6.40405C12.5026 6.42263 11.6382 6.59175 10.8207 6.90412C10.1213 7.1767 9.48604 7.59402 8.95588 8.12927C8.42572 8.66452 8.01237 9.30584 7.74238 10.012C7.43298 10.8374 7.26547 11.71 7.24707 12.5923C7.19506 13.725 7.18268 14.0925 7.18268 16.9729C7.18268 19.8533 7.19506 20.2233 7.24707 21.3535C7.26547 22.2358 7.43298 23.1084 7.74238 23.9338C8.01323 24.6386 8.42698 25.2784 8.95709 25.8123C9.4872 26.3463 10.122 26.7624 10.8207 27.0342C11.6382 27.3465 12.5026 27.5157 13.3765 27.5342C14.4984 27.5867 14.8624 27.5992 17.7154 27.5992C20.5684 27.5992 20.9349 27.5992 22.0543 27.5342C22.9282 27.5157 23.7926 27.3465 24.6101 27.0342C25.3091 26.7613 25.9438 26.3438 26.4735 25.8086C27.0032 25.2734 27.4162 24.6322 27.6859 23.9263C27.9953 23.1009 28.1628 22.2283 28.1812 21.346C28.2332 20.2133 28.2456 19.8458 28.2456 16.9654C28.2456 14.085 28.2332 13.715 28.1812 12.5848C28.1628 11.7025 27.9953 10.8299 27.6859 10.0045C27.4159 9.29834 27.0026 8.65702 26.4724 8.12177C25.9423 7.58652 25.307 7.1692 24.6076 6.89661C23.7901 6.58425 22.9257 6.41513 22.0518 6.39655C20.9299 6.34404 20.5659 6.33154 17.7129 6.33154L17.7154 6.33904Z" fill="white"/>
    <path d="M17.7142 11.8203C16.6033 11.8203 15.5174 12.1221 14.5937 12.6875C13.67 13.2529 12.9501 14.0565 12.525 14.9967C12.0998 15.9369 11.9886 16.9714 12.2053 17.9695C12.4221 18.9677 12.957 19.8845 13.7425 20.6041C14.5281 21.3237 15.5289 21.8137 16.6184 22.0123C17.708 22.2108 18.8373 22.1089 19.8637 21.7195C20.89 21.33 21.7672 20.6705 22.3844 19.8244C23.0016 18.9782 23.331 17.9834 23.331 16.9657C23.331 15.6011 22.7392 14.2923 21.6859 13.3274C20.6325 12.3624 19.2039 11.8203 17.7142 11.8203ZM17.7142 20.3095C16.9929 20.3095 16.2878 20.1136 15.688 19.7466C15.0882 19.3795 14.6207 18.8578 14.3445 18.2473C14.0684 17.6369 13.996 16.9652 14.1365 16.3171C14.2771 15.669 14.6242 15.0736 15.1341 14.6062C15.6439 14.1387 16.2936 13.8203 17.001 13.6911C17.7084 13.5619 18.4417 13.6278 19.1083 13.8803C19.7748 14.1329 20.3447 14.5608 20.7458 15.11C21.1469 15.6591 21.3613 16.3049 21.3618 16.9657C21.3611 17.8517 20.9766 18.7013 20.2927 19.3278C19.6088 19.9543 18.6814 20.3066 17.7142 20.3072V20.3095Z" fill="white"/>
    <path d="M23.331 12.5064C24.1065 12.5064 24.7352 11.8921 24.7352 11.1343C24.7352 10.3765 24.1065 9.76221 23.331 9.76221C22.5554 9.76221 21.9268 10.3765 21.9268 11.1343C21.9268 11.8921 22.5554 12.5064 23.331 12.5064Z" fill="white"/>
</svg>