<svg height="100%" w="auto" viewBox="0 0 1440 115" fill="none" xmlns="http://www.w3.org/2000/svg">
    <path fill-rule="evenodd" clip-rule="evenodd" d="M743.094 52.2239C741.294 42.2279 748.859 34.2706 758.199 34.7373C764.758 35.0693 771.447 39.7492 771.515 48.0532C771.556 53.9386 767.659 59.2839 763.364 60.9666C760.672 62.0212 756.9 61.3866 756.806 58.1852C756.723 55.2799 759.592 55.0133 761.779 53.4146C769.616 47.6906 763.558 34.4786 752.631 37.3199C747.059 38.7732 742.834 44.4466 743.094 52.2239Z" fill="#F89E18"/>
    <path d="M775.632 94.1758C769.903 94.1758 764.584 91.4705 764.403 85.1825C764.168 77.1345 772.099 76.4011 778.147 71.9918C797.767 57.6544 785.914 26.3638 761.098 26.3638C758.486 26.3638 755.734 26.7091 752.856 27.4584C737.432 31.4731 725.744 47.1731 726.47 68.6891C721.623 41.8144 741.247 20.2571 766.074 20.2571C766.796 20.2571 767.519 20.2758 768.25 20.3131C786.396 21.2278 804.914 34.1758 805.086 57.1451C805.207 73.4344 794.438 88.2198 782.54 92.8785C780.384 93.7238 777.974 94.1758 775.632 94.1758Z" fill="#B1B4AA"/>
    <path d="M767.135 74.521C763.567 74.521 760.256 72.837 760.146 68.9237C759.999 63.9157 764.94 63.4584 768.703 60.709C780.916 51.7864 773.535 32.3104 758.087 32.3104C756.46 32.3104 754.747 32.525 752.955 32.9917C743.36 35.4917 736.076 45.2637 736.535 58.6583C733.518 41.9277 745.734 28.5077 761.188 28.5077C761.638 28.5077 762.087 28.5184 762.54 28.541C773.836 29.1117 785.363 37.1703 785.467 51.4703C785.546 61.609 778.84 70.8157 771.436 73.7144C770.094 74.2397 768.592 74.521 767.135 74.521Z" fill="#D93D3F"/>
    <path d="M395.528 111.758C375.891 111.758 354.9 100.662 341.945 81.4884C323.719 54.523 328.307 21.791 352.192 8.38836C359.097 4.51236 366.865 2.67502 374.853 2.67502C392.795 2.67502 411.865 11.9337 424.904 28.155C414.605 18.0404 401.215 12.3763 388.512 12.3763C381.967 12.3763 375.603 13.8817 369.943 17.0577C367.035 18.6897 364.476 20.671 362.275 22.9363C362.215 22.9697 362.155 23.003 362.095 23.0363C341.789 34.431 337.888 62.255 353.38 85.179C364.391 101.471 382.235 110.904 398.925 110.904C405.664 110.904 412.212 109.368 418.049 106.124C411.177 109.946 403.463 111.758 395.528 111.758ZM418.049 106.124C418.064 106.115 418.077 106.108 418.092 106.1C418.079 106.107 418.063 106.116 418.049 106.124ZM418.092 106.1C418.1 106.095 418.107 106.092 418.113 106.088C418.107 106.092 418.1 106.096 418.092 106.1ZM418.113 106.088C418.14 106.074 418.165 106.059 418.192 106.044C418.167 106.059 418.14 106.074 418.113 106.088ZM418.192 106.044C418.213 106.032 418.236 106.019 418.259 106.007C418.236 106.019 418.215 106.031 418.192 106.044ZM418.259 106.007C418.269 106 418.283 105.992 418.295 105.987C418.283 105.994 418.269 106 418.259 106.007ZM418.313 105.976C425.092 102.139 430.032 96.4603 433.015 89.7456C434.271 88.2883 435.391 86.7337 436.373 85.0923C432.967 93.7737 426.892 101.126 418.313 105.976ZM433.623 88.295C435.003 84.7963 435.871 81.0443 436.215 77.1417C437.349 75.1177 438.261 72.9323 438.923 70.6083C438.856 77.123 437.057 83.2497 433.623 88.295ZM428.905 47.0897C428.276 46.0203 427.607 44.959 426.896 43.9083C425.657 42.0763 424.333 40.3296 422.933 38.6736C425.368 41.2216 427.377 44.0777 428.905 47.0897Z" fill="#D93D3F"/>
    <path d="M405.451 101.754C389.361 101.754 372.163 92.6616 361.548 76.9522C348.833 58.1416 349.669 35.9069 362.275 22.9362C368.1 19.7109 374.631 18.1829 381.351 18.1829C381.983 18.1829 382.613 18.1962 383.249 18.2229C371.892 22.5735 364.496 33.2389 364.404 46.5976C361.531 56.7936 363.541 69.0616 370.917 79.9749C379.939 93.3242 394.559 101.054 408.235 101.054C413.755 101.054 419.121 99.7949 423.904 97.1362C418.273 100.268 411.952 101.754 405.451 101.754ZM431.849 36.3549C430.068 33.8376 428.048 31.4829 425.832 29.3336C425.527 28.9376 425.216 28.5429 424.904 28.1549C427.423 30.6269 429.756 33.3682 431.849 36.3549Z" fill="#CA8218"/>
    <path d="M425.832 29.3336C418.101 21.8363 408.003 16.847 397.448 16.1803C396.651 16.131 395.864 16.1056 395.085 16.1056C390.816 16.1056 386.833 16.8496 383.249 18.2229C382.613 18.1963 381.983 18.183 381.351 18.183C374.631 18.183 368.1 19.711 362.275 22.9363C364.476 20.671 367.035 18.6896 369.943 17.0576C375.603 13.8816 381.967 12.3763 388.512 12.3763C401.215 12.3763 414.605 18.0403 424.904 28.155C425.216 28.543 425.527 28.9376 425.832 29.3336Z" fill="#F6811D"/>
    <path d="M423.904 97.1361C423.916 97.1294 423.927 97.1241 423.94 97.1161C423.928 97.1228 423.916 97.1294 423.904 97.1361ZM424.02 97.0707C424.039 97.0614 424.057 97.0508 424.075 97.0414C424.056 97.0508 424.039 97.0614 424.02 97.0707ZM424.105 97.0241C424.109 97.0215 424.115 97.0188 424.119 97.0161C424.115 97.0175 424.109 97.0215 424.105 97.0241ZM424.119 97.0161C428.056 94.7881 431.235 91.8041 433.623 88.2948C433.429 88.7841 433.228 89.2668 433.015 89.7454C430.561 92.5908 427.589 95.0535 424.119 97.0161ZM436.373 85.0921C438.476 79.7321 439.563 73.8668 439.593 67.7694C440.261 64.2348 440.381 60.4321 439.873 56.4495C439.059 50.0761 436.731 43.9721 433.3 38.5268C443.355 54.3281 444.036 72.2948 436.373 85.0921Z" fill="#CA8218"/>
    <path d="M433.015 89.7455C433.228 89.2668 433.429 88.7842 433.623 88.2948C437.057 83.2495 438.856 77.1228 438.923 70.6082C439.185 69.6828 439.411 68.7362 439.593 67.7695C439.563 73.8668 438.476 79.7322 436.373 85.0922C435.391 86.7335 434.271 88.2881 433.015 89.7455Z" fill="#F6811D"/>
    <path d="M409.495 92.0656C408.737 92.0656 407.973 92.0429 407.199 91.9949C407.852 92.0349 408.503 92.0549 409.141 92.0549C421.735 92.0549 431.359 84.4523 434.295 73.2909C435.023 72.2536 435.68 71.1429 436.26 69.9603C436.437 72.3923 436.421 74.7949 436.215 77.1416C431.097 86.2616 421.427 92.0656 409.495 92.0656Z" fill="#D93D3F"/>
    <path d="M436.215 77.1415C436.421 74.7948 436.437 72.3922 436.26 69.9602C436.352 69.7748 436.441 69.5855 436.529 69.3962C437.355 67.6055 437.968 65.7401 438.38 63.8255C438.765 66.1121 438.945 68.3828 438.923 70.6081C438.261 72.9321 437.349 75.1175 436.215 77.1415Z" fill="#F03F44"/>
    <path d="M407.081 91.9884C386.349 90.6524 367.392 72.6403 364.719 51.723C364.496 49.9763 364.393 48.2657 364.404 46.5977C366.476 39.2457 371.087 32.971 378.057 29.059C379.048 28.5043 380.064 28.0083 381.103 27.571C379.513 29.3456 378.159 31.3937 377.095 33.703C376.449 35.1003 375.933 36.5443 375.543 38.023C371.843 43.2683 370.103 50.1217 371.079 57.7617C373.352 75.539 389.468 90.8497 407.081 91.9884ZM433.3 38.527C433.072 38.1684 432.84 37.811 432.601 37.455C432.447 37.2204 432.291 36.991 432.129 36.759C432.037 36.6243 431.944 36.4897 431.849 36.355C432.352 37.0657 432.837 37.791 433.3 38.527ZM422.468 38.1964C418.231 34.231 413.204 31.1417 407.797 29.3217C410.383 30.079 412.973 31.207 415.495 32.7217C418.083 34.2764 420.419 36.1297 422.468 38.1964Z" fill="#D93D3F"/>
    <path d="M439.593 67.7694C439.607 64.9987 439.403 62.1787 438.977 59.3387C439.38 51.9627 437.073 44.1988 432.601 37.4548C432.84 37.8108 433.072 38.1681 433.3 38.5268C436.731 43.9721 439.059 50.0761 439.873 56.4494C440.381 60.4321 440.261 64.2347 439.593 67.7694Z" fill="#F25238"/>
    <path d="M438.923 70.6083C438.945 68.3829 438.765 66.1123 438.38 63.8256C438.697 62.3549 438.895 60.8563 438.977 59.3389C439.403 62.1789 439.607 64.9989 439.593 67.7696C439.411 68.7363 439.185 69.6829 438.923 70.6083Z" fill="#F2523B"/>
    <path d="M364.404 46.5975C364.496 33.2389 371.892 22.5735 383.249 18.2229C386.895 18.3775 390.583 18.9735 394.227 19.9842C389.111 21.1509 384.552 23.7188 381.103 27.5708C380.064 28.0082 379.048 28.5042 378.057 29.0589C371.087 32.9709 366.476 39.2455 364.404 46.5975ZM432.129 36.7589C430.496 34.4015 428.593 32.1749 426.448 30.1455C426.244 29.8722 426.04 29.6029 425.832 29.3335C428.048 31.4829 430.068 33.8376 431.849 36.3549C431.944 36.4896 432.037 36.6242 432.129 36.7589Z" fill="#F25238"/>
    <path d="M426.448 30.1454C424.277 28.0921 421.859 26.2414 419.215 24.6534C413.148 21.0081 406.748 19.2641 400.741 19.2641C398.503 19.2641 396.317 19.5067 394.227 19.9841C390.583 18.9734 386.895 18.3774 383.249 18.2227C386.833 16.8494 390.816 16.1054 395.085 16.1054C395.864 16.1054 396.651 16.1308 397.448 16.1801C408.003 16.8468 418.101 21.8361 425.832 29.3334C426.04 29.6027 426.244 29.8721 426.448 30.1454Z" fill="#F2523B"/>
    <path d="M412.881 83.8348C406.875 83.8348 400.475 82.0908 394.407 78.4455C399.564 81.5428 405.007 83.0255 410.112 83.0255C418.816 83.0255 426.54 78.7162 430.212 70.7562C433.56 63.4949 432.804 54.7789 428.905 47.0895C431.736 51.9015 433.748 56.8815 434.967 61.8415C435.48 65.9255 435.219 69.7842 434.295 73.2909C429.48 80.1602 421.597 83.8348 412.881 83.8348ZM422.933 38.6735C422.78 38.5135 422.625 38.3549 422.468 38.1962C422.569 38.2909 422.669 38.3856 422.768 38.4802C422.823 38.5442 422.879 38.6095 422.933 38.6735Z" fill="#B1B4AA"/>
    <path d="M434.967 61.8417C433.748 56.8817 431.736 51.9017 428.905 47.0897C427.377 44.0777 425.368 41.2216 422.933 38.6736C422.879 38.6096 422.823 38.5443 422.768 38.4803C429.253 44.667 433.827 52.9177 434.96 61.783C434.961 61.803 434.964 61.8217 434.967 61.8417Z" fill="#ECAFA8"/>
    <path d="M394.275 78.3656C379.496 69.4136 371.791 52.195 375.543 38.023C380.129 31.5203 387.727 27.4896 396.899 27.4896C397.559 27.4896 398.231 27.5097 398.907 27.5523C401.935 27.743 404.92 28.3523 407.797 29.3217C405.096 28.5297 402.4 28.1429 399.791 28.1429C391.085 28.1429 383.36 32.4523 379.691 40.4123C373.887 52.9989 380.416 69.9629 394.275 78.3656Z" fill="#B1B4AA"/>
    <path d="M434.295 73.2909C435.219 69.7842 435.48 65.9255 434.967 61.8415C435.636 64.5642 436.065 67.2802 436.26 69.9602C435.68 71.1429 435.023 72.2536 434.295 73.2909ZM422.768 38.4802C422.669 38.3855 422.569 38.2909 422.468 38.1962C420.419 36.1296 418.083 34.2762 415.495 32.7216C412.973 31.2069 410.383 30.0789 407.797 29.3216C404.92 28.3522 401.935 27.7429 398.907 27.5522C398.231 27.5096 397.559 27.4895 396.899 27.4895C387.727 27.4895 380.129 31.5202 375.543 38.0229C375.933 36.5442 376.449 35.1002 377.095 33.7029C378.159 31.3935 379.513 29.3455 381.103 27.5708C385.101 25.8882 389.417 25.0829 393.835 25.0829C401.201 25.0829 408.843 27.3242 415.733 31.4802C418.231 33.5869 420.588 35.9229 422.768 38.4802Z" fill="#ECAFA8"/>
    <path d="M436.26 69.9603C436.065 67.2803 435.636 64.5643 434.967 61.8416C434.964 61.8216 434.961 61.803 434.96 61.783C433.827 52.9177 429.253 44.667 422.768 38.4803C420.588 35.923 418.231 33.587 415.733 31.4803C421.636 35.039 426.992 40.003 431.152 46.1616C434.993 51.843 437.38 57.8923 438.38 63.8256C437.968 65.7403 437.355 67.6057 436.529 69.3963C436.441 69.5857 436.352 69.775 436.26 69.9603Z" fill="#F9ADAA"/>
    <path d="M432.601 37.455C432.54 37.363 432.477 37.2696 432.416 37.1776C432.321 37.0376 432.225 36.8976 432.129 36.7589C432.291 36.9909 432.447 37.2203 432.601 37.455Z" fill="#ECAFA8"/>
    <path d="M438.977 59.3387C437.651 50.4921 434.175 41.4334 428.439 32.9454C427.795 31.9907 427.131 31.0587 426.448 30.1454C428.593 32.1747 430.496 34.4014 432.129 36.7587C432.225 36.8974 432.321 37.0374 432.416 37.1774C432.477 37.2694 432.54 37.3628 432.601 37.4548C437.073 44.1988 439.38 51.9627 438.977 59.3387ZM415.733 31.4801C408.843 27.3241 401.201 25.0828 393.835 25.0828C389.417 25.0828 385.101 25.888 381.103 27.5707C384.552 23.7187 389.111 21.1507 394.227 19.9841C401.825 22.0921 409.245 26.0041 415.733 31.4801Z" fill="#FAB6A3"/>
    <path d="M438.38 63.8256C437.38 57.8922 434.993 51.8429 431.152 46.1616C426.992 40.0029 421.636 35.0389 415.733 31.4802C409.245 26.0042 401.825 22.0922 394.227 19.9842C396.317 19.5069 398.503 19.2642 400.741 19.2642C406.748 19.2642 413.148 21.0082 419.215 24.6536C421.859 26.2416 424.277 28.0922 426.448 30.1455C427.131 31.0589 427.795 31.9909 428.439 32.9455C434.175 41.4335 437.651 50.4922 438.977 59.3389C438.895 60.8562 438.697 62.3549 438.38 63.8256Z" fill="#FAB6A3"/>
    <path d="M394.407 78.4457C394.361 78.419 394.319 78.3923 394.275 78.3657C394.319 78.3923 394.363 78.419 394.407 78.4457Z" fill="#B1B4AA"/>
    <path d="M150.732 91.9788C141.107 82.9761 135.639 70.3161 135.646 57.1855C143.643 59.3308 150.502 65.8001 152.882 74.5108C154.603 80.8028 153.647 87.0308 150.732 91.9788Z" fill="#CA8218"/>
    <path d="M164.317 100.859C161.439 99.6122 158.741 98.1229 156.247 96.4082C157.275 92.2976 157.716 87.7816 157.399 83.0562C156.309 66.8656 146.908 54.1002 135.827 52.9976C136.151 49.3909 136.903 45.7709 138.096 42.2095C149.969 47.4415 160.041 60.0762 163.84 76.5389C165.791 84.9682 165.837 93.3136 164.317 100.859Z" fill="#D93D3F"/>
    <path d="M200.611 35.5696C196.949 35.5696 193.189 35.1629 189.405 34.3122C176.849 31.4882 166.638 24.3536 160.631 15.3642C161.852 14.7042 163.101 14.1069 164.368 13.5562C168.417 18.5309 174.14 22.8602 181.076 25.7429C186.687 28.0762 192.404 29.1842 197.762 29.1842C205.094 29.1842 211.751 27.1083 216.527 23.2603C218.7 25.3896 220.644 27.7109 222.349 30.1856C216.092 33.6429 208.588 35.5696 200.611 35.5696Z" fill="#D93D3F"/>
    <path d="M198 102.42C197.987 94.2068 200.287 85.4988 205.101 77.4642C211.437 66.8948 220.848 59.6001 230.783 56.4655C230.825 59.0535 230.656 61.6655 230.265 64.2722C224.281 66.8895 218.137 71.4202 212.84 77.5522C206.253 85.1709 202.295 93.7282 201.303 101.215C200.216 101.663 199.113 102.059 198 102.42Z" fill="#D93D3F"/>
    <path d="M183.176 104.791C179.317 104.791 175.417 104.319 171.556 103.338C171.607 100.218 171.529 97.031 171.312 93.7963C169.353 64.707 156.8 40.947 141.439 34.475C144.033 29.695 147.367 25.5163 151.227 22.0123C157.165 26.5603 164.124 30.6123 171.885 33.8403C183.289 38.5816 194.747 40.855 204.981 40.855C212.997 40.8537 220.264 39.459 226.157 36.7643C227.387 39.3443 228.376 42.0377 229.127 44.803C222.815 49.0537 216.649 54.4816 211.041 60.971C198.977 74.9256 192.108 90.7337 191.147 104.116C188.527 104.563 185.861 104.791 183.176 104.791ZM184.715 44.6803C165.625 44.6803 165.595 74.347 184.715 74.347C203.804 74.347 203.836 44.6803 184.715 44.6803Z" fill="#B1B4AA"/>
    <path d="M196.296 25.6655C194.751 25.6655 193.192 25.5269 191.636 25.2389C183.068 23.6589 176.637 17.9469 173.897 10.5709C176.957 9.9562 180.085 9.64157 183.243 9.64157C189.327 9.64157 195.512 10.8162 201.48 13.2962C205.657 15.0335 209.447 17.3096 212.824 19.9882C208.117 23.5709 202.303 25.6669 196.296 25.6655Z" fill="#CA8218"/>
    <path d="M205.3 99.3496C205.697 95.3069 207.013 91.1509 209.343 87.2643C213.748 79.9163 220.676 75.2602 227.66 74.1482C227.488 74.5909 227.325 75.0403 227.14 75.4829C222.7 86.1683 214.811 94.3723 205.3 99.3496Z" fill="#CA8218"/>
    <path d="M583.654 99.303C583.651 99.303 583.646 99.303 583.642 99.303C583.638 99.303 583.635 99.303 583.63 99.303C572.032 99.303 561.477 94.5803 553.882 86.9763C546.276 79.379 541.553 68.8203 541.555 57.2163C541.553 45.6136 546.276 35.0536 553.882 27.4563C561.477 19.8523 572.032 15.1296 583.631 15.1296C583.635 15.1296 583.639 15.1296 583.642 15.1296C583.647 15.1296 583.649 15.1296 583.653 15.1296C595.251 15.1296 605.807 19.8523 613.402 27.4563C621.008 35.0536 625.732 45.6136 625.73 57.2163C625.732 68.8203 621.008 79.379 613.402 86.9763C605.807 94.5816 595.252 99.303 583.654 99.303ZM574.519 28.5363C569.883 30.0083 565.74 32.575 562.368 35.943C556.914 41.4056 553.558 48.8896 553.555 57.2163C553.558 65.5443 556.914 73.027 562.368 78.491C567.831 83.9457 575.315 87.3003 583.642 87.3043C591.97 87.3003 599.454 83.9457 604.917 78.491C610.371 73.027 613.726 65.5443 613.73 57.2163C613.726 48.8896 610.371 41.4056 604.917 35.943C603.826 34.8536 602.654 33.8483 601.411 32.9363C598.668 27.4123 592.97 23.615 586.384 23.615C581.75 23.615 577.554 25.4963 574.519 28.5363Z" fill="#B1B4AA"/>
    <path d="M586.384 57.147C577.126 57.147 569.619 49.6403 569.619 40.3803C569.619 35.7563 571.491 31.5696 574.519 28.5363C577.392 27.623 580.455 27.131 583.642 27.1296C590.307 27.1323 596.431 29.2816 601.411 32.9363C602.524 35.179 603.151 37.707 603.151 40.3803C603.151 49.6403 595.644 57.147 586.384 57.147Z" fill="#CA8218"/>
    <path d="M601.411 32.9363C596.431 29.2816 590.307 27.1323 583.642 27.1296C580.455 27.1309 577.392 27.6229 574.519 28.5363C577.554 25.4963 581.75 23.615 586.384 23.615C592.97 23.615 598.668 27.4123 601.411 32.9363Z" fill="#F9AA2B"/>
    <path d="M-14.0945 50.1144C-8.91715 41.657 -7.45581 33.7917 -7.95181 26.9224C-2.16514 21.3637 6.52952 16.8624 19.5735 15.465C19.5735 15.465 20.5295 30.8904 10.5549 43.0637C9.5282 42.9744 8.52285 42.9331 7.53485 42.9331C-1.65849 42.9331 -9.07848 46.589 -14.0945 50.1144Z" fill="#B1B4AA"/>
    <path d="M10.3669 67.3651C0.725519 58.2184 -11.5318 57.1465 -16.7425 57.1465C-17.9918 57.1465 -18.8371 57.2091 -19.1425 57.2358C-4.27846 55.8291 4.89754 49.9705 10.5549 43.0638C17.9869 43.7078 26.4482 46.8011 35.6455 54.1211C35.6455 54.1211 25.7162 65.5064 10.3669 67.3651Z" fill="#D93D3F"/>
    <path d="M-19.2705 57.2477C-17.2358 54.829 -15.5252 52.4503 -14.0945 50.1143C-9.0785 46.589 -1.6585 42.933 7.53483 42.933C8.52283 42.933 9.52818 42.9744 10.5548 43.0637C4.89752 49.9704 -4.27848 55.829 -19.1425 57.2357C-19.2265 57.2424 -19.2705 57.2477 -19.2705 57.2477Z" fill="#F2595F"/>
    <path d="M21.4562 95.5983C17.1709 95.5983 4.79486 94.8116 -5.27181 86.4316C-5.25981 74.2543 -11.6505 65.2129 -15.7998 60.6263C-7.8558 65.7543 -0.441119 67.6196 6.15355 67.6196C7.59888 67.6196 9.00419 67.5303 10.3669 67.3649C16.3735 73.0636 21.3629 81.8956 23.0042 95.5556C23.0042 95.5556 22.4442 95.5983 21.4562 95.5983Z" fill="#CA8218"/>
    <path d="M6.15351 67.6198C-0.441153 67.6198 -7.85584 65.7544 -15.7998 60.6264C-17.7945 58.4224 -19.2705 57.2477 -19.2705 57.2477C-19.2278 57.2437 -19.1851 57.2398 -19.1425 57.2358C-18.8371 57.2091 -17.9918 57.1464 -16.7425 57.1464C-11.5318 57.1464 0.725494 58.2184 10.3668 67.3651C9.00416 67.5304 7.59885 67.6198 6.15351 67.6198Z" fill="#F6811D"/>
    <path d="M1301.17 91.1132H1292.89C1291.07 91.1132 1289.6 89.6465 1289.6 87.8385V79.5439C1289.6 77.7359 1291.07 76.2638 1292.89 76.2638H1301.17L1301.29 76.2772L1328.31 52.6039C1327.17 51.7239 1326.43 50.3665 1326.43 48.8238V36.6905C1326.43 34.0398 1328.58 31.8905 1331.23 31.8905H1343.36C1346.01 31.8905 1348.16 34.0398 1348.16 36.6905V48.8238C1348.16 50.3532 1347.44 51.6972 1346.32 52.5772L1353.06 58.9052C1353.5 58.6865 1353.99 58.5465 1354.52 58.5465H1362.81C1363.33 58.5465 1363.82 58.6772 1364.26 58.8918L1387.54 37.1065C1386.43 35.6599 1385.76 33.8518 1385.76 31.8905C1385.76 27.1558 1389.6 23.3198 1394.33 23.3198C1399.07 23.3198 1402.9 27.1558 1402.9 31.8905C1402.9 36.6238 1399.07 40.4598 1394.33 40.4598C1392.61 40.4598 1391.01 39.9518 1389.67 39.0812L1366.03 61.1998C1366.07 61.4012 1366.09 61.6118 1366.09 61.8265V70.1158C1366.09 71.9292 1364.63 73.3958 1362.81 73.3958H1354.52C1352.71 73.3958 1351.24 71.9292 1351.24 70.1158V61.8265C1351.24 61.6252 1351.27 61.4278 1351.3 61.2345L1343.2 53.6198H1331.56L1303.95 77.8052C1304.27 78.3132 1304.45 78.9052 1304.45 79.5439V87.8385C1304.45 89.6465 1302.99 91.1132 1301.17 91.1132ZM1334.04 34.6679C1331.48 34.6679 1329.37 36.7692 1329.37 39.3372V45.8958C1329.37 48.4638 1331.48 50.5638 1334.04 50.5638H1340.42C1342.99 50.5638 1345.09 48.4638 1345.09 45.8958V39.3372C1345.09 36.7692 1342.99 34.6679 1340.42 34.6679H1334.04ZM1394.47 25.9012C1391.15 25.9012 1388.45 28.5932 1388.45 31.9145C1388.45 35.2358 1391.15 37.9278 1394.47 37.9278C1397.79 37.9278 1400.48 35.2358 1400.48 31.9145C1400.48 28.5932 1397.79 25.9012 1394.47 25.9012Z" fill="#B1B4AA"/>
    <path d="M1394.47 37.9279C1391.15 37.9279 1388.45 35.2358 1388.45 31.9145C1388.45 28.5932 1391.15 25.9012 1394.47 25.9012C1397.79 25.9012 1400.48 28.5932 1400.48 31.9145C1400.48 35.2358 1397.79 37.9279 1394.47 37.9279Z" fill="#F2595F"/>
    <path d="M1340.42 50.5638H1334.04C1331.48 50.5638 1329.37 48.4638 1329.37 45.8958V39.3372C1329.37 36.7692 1331.48 34.6678 1334.04 34.6678H1340.42C1342.99 34.6678 1345.09 36.7692 1345.09 39.3372V45.8958C1345.09 48.4638 1342.99 50.5638 1340.42 50.5638Z" fill="#F9AA2B"/>
    <path d="M967.923 72.2223C963.352 72.2223 959.259 70.229 956.425 67.0783C953.588 63.6343 949.288 61.437 944.476 61.437C939.672 61.437 935.377 63.6276 932.54 67.0636L932.328 66.7823C929.491 70.1076 925.276 72.2223 920.561 72.2223C912.015 72.2223 905.087 65.2943 905.087 56.7476C905.087 48.201 912.015 41.273 920.561 41.273C925.493 41.273 929.876 43.5877 932.709 47.1823L932.753 47.1343C935.591 50.4316 939.785 52.5276 944.476 52.5276C950.003 52.5276 954.837 49.6223 957.576 45.265C960.319 42.7916 963.939 41.273 967.923 41.273C976.469 41.273 983.397 48.201 983.397 56.7476C983.397 65.2943 976.469 72.2223 967.923 72.2223Z" fill="#D93D3F"/>
    <path d="M932.988 30.9571C932.988 24.7411 938.027 19.7025 944.243 19.7025C950.457 19.7025 955.496 24.7411 955.496 30.9571C955.496 37.1731 950.457 42.2118 944.243 42.2118C938.027 42.2118 932.988 37.1731 932.988 30.9571Z" fill="#F89E18"/>
    <path d="M944.243 94.7302C938.027 94.7302 932.988 89.6916 932.988 83.4756C932.988 77.2609 938.027 72.2222 944.243 72.2222C950.457 72.2222 955.496 77.2609 955.496 83.4756C955.496 89.6916 950.457 94.7302 944.243 94.7302Z" fill="#B1B4AA"/>
    <path d="M1136.84 75.1824C1136.84 75.1824 1123.33 44.661 1123.33 37.1997C1123.33 29.7384 1129.38 23.6904 1136.84 23.6904C1144.3 23.6904 1150.35 29.7384 1150.35 37.1997C1150.35 44.661 1136.84 75.1824 1136.84 75.1824Z" fill="#E43D3E"/>
    <path d="M1176.09 90.7422C1168.63 90.7422 1138.11 77.2315 1138.11 77.2315C1138.11 77.2315 1168.63 63.7222 1176.09 63.7222C1183.56 63.7222 1189.6 69.7702 1189.6 77.2315C1189.6 84.6928 1183.56 90.7422 1176.09 90.7422Z" fill="#F89E18"/>
    <path d="M1096.91 90.7422C1089.45 90.7422 1083.4 84.6928 1083.4 77.2315C1083.4 69.7702 1089.45 63.7209 1096.91 63.7209C1104.37 63.7209 1134.89 77.2315 1134.89 77.2315C1134.89 77.2315 1104.37 90.7422 1096.91 90.7422Z" fill="#B1B4AA"/>
</svg>