<svg width="4vw" viewBox="0 0 55 55" fill="none" xmlns="http://www.w3.org/2000/svg">
    <rect y="0.232666" width="55" height="55" rx="27.5" fill="#FFECEC"/>
    <path fill-rule="evenodd" clip-rule="evenodd" d="M27.5 26.5328C28.4548 26.5328 29.3705 26.1535 30.0456 25.4783C30.7207 24.8032 31.1 23.8875 31.1 22.9328C31.1 21.978 30.7207 21.0623 30.0456 20.3872C29.3705 19.712 28.4548 19.3328 27.5 19.3328C26.5452 19.3328 25.6296 19.712 24.9544 20.3872C24.2793 21.0623 23.9 21.978 23.9 22.9328C23.9 23.8875 24.2793 24.8032 24.9544 25.4783C25.6296 26.1535 26.5452 26.5328 27.5 26.5328ZM22.3987 37.3328C20.5769 37.3328 19.0422 35.8013 19.7394 34.1182C20.1616 33.0991 20.7803 32.1731 21.5603 31.3931C22.3403 30.6131 23.2663 29.9943 24.2855 29.5722C25.3046 29.15 26.3969 28.9328 27.5 28.9328C28.6031 28.9328 29.6954 29.15 30.7145 29.5722C31.7337 29.9943 32.6597 30.6131 33.4397 31.3931C34.2197 32.1731 34.8385 33.0991 35.2606 34.1182C35.9578 35.8013 34.4232 37.3328 32.6014 37.3328H22.3987Z" fill="#F53838"/>
</svg>