<svg width="4vw" viewBox="0 0 55 55" fill="none" xmlns="http://www.w3.org/2000/svg">
    <rect x="0.5" y="0.232666" width="55" height="55" rx="27.5" fill="#FFECEC"/>
    <path d="M35 24.7327C35 23.8134 34.8189 22.9032 34.4672 22.0539C34.1154 21.2046 33.5998 20.4329 32.9497 19.7829C32.2997 19.1329 31.5281 18.6173 30.6788 18.2655C29.8295 17.9137 28.9193 17.7327 28 17.7327C27.0807 17.7327 26.1705 17.9137 25.3212 18.2655C24.4719 18.6173 23.7003 19.1329 23.0503 19.7829C22.4002 20.4329 21.8846 21.2046 21.5328 22.0539C21.1811 22.9032 21 23.8134 21 24.7327C21 26.1197 21.41 27.4097 22.105 28.4977H22.097C24.457 32.1927 28 37.7327 28 37.7327L33.903 28.4977H33.896C34.6164 27.374 34.9995 26.0674 35 24.7327ZM28 27.7327C27.2044 27.7327 26.4413 27.4166 25.8787 26.854C25.3161 26.2914 25 25.5283 25 24.7327C25 23.937 25.3161 23.174 25.8787 22.6113C26.4413 22.0487 27.2044 21.7327 28 21.7327C28.7956 21.7327 29.5587 22.0487 30.1213 22.6113C30.6839 23.174 31 23.937 31 24.7327C31 25.5283 30.6839 26.2914 30.1213 26.854C29.5587 27.4166 28.7956 27.7327 28 27.7327Z" fill="#F53838"/>
</svg>