<svg width="4vw" viewBox="0 0 55 55" fill="none" xmlns="http://www.w3.org/2000/svg">
    <rect y="0.0307617" width="55" height="55" rx="27.5" fill="#FFECEC"/>
    <path d="M41.9301 18.7266L48.1665 12.3273C48.4497 12.0394 48.452 11.5705 48.1715 11.2798C48.0418 11.1454 47.8671 11.067 47.6829 11.0607L47.7046 11.1052L44.312 10.9867L44.1966 7.50552C44.1831 7.09667 43.8493 6.77643 43.4508 6.79022C43.2667 6.79661 43.0918 6.87494 42.9623 7.00928L36.733 13.3716C36.5924 13.5168 36.5166 13.7152 36.5237 13.9197V14.6604C29.1174 9.42505 18.9776 11.3418 13.8755 18.9414C8.77348 26.541 10.6414 36.9458 18.0476 42.1811C25.4538 47.4164 35.5937 45.4997 40.6958 37.9C44.5278 32.1922 44.5278 24.6493 40.6958 18.9414H41.4176C41.6094 18.9425 41.7938 18.8652 41.9301 18.7266ZM42.1466 28.4293C42.1574 36.8477 35.5154 43.6812 27.3113 43.6923C19.1071 43.7034 12.4476 36.8879 12.4368 28.4695C12.4259 20.0511 19.068 13.2176 27.2721 13.2065C30.6691 13.2019 33.9649 14.3921 36.6103 16.5787L36.6464 17.8156L33.7591 20.7783C29.6519 17.0845 23.4042 17.5066 19.8044 21.7211C16.2046 25.9356 16.6161 32.3465 20.7233 36.0403C24.8305 39.7341 31.0782 39.3119 34.678 35.0975C37.9123 31.3108 37.9513 25.6633 34.7697 21.83L37.6569 18.8673L38.8479 18.9118C40.9708 21.6068 42.1343 24.9641 42.1466 28.4293ZM26.8297 28.9256C27.1112 29.2128 27.566 29.2128 27.8475 28.9256L29.2911 27.4443C29.4318 27.7422 29.5058 28.0686 29.5077 28.3997C29.5077 29.6269 28.5382 30.6217 27.3422 30.6217C26.1463 30.6217 25.1768 29.6269 25.1768 28.3997C25.1768 27.1725 26.1463 26.1777 27.3422 26.1777C27.6649 26.1797 27.983 26.2556 28.2734 26.3999L26.8297 27.8812C26.5498 28.1701 26.5498 28.6367 26.8297 28.9256ZM29.3272 25.3111C27.665 24.1824 25.4258 24.6499 24.3258 26.3555C23.2257 28.061 23.6814 30.3588 25.3435 31.4875C27.0057 32.6163 29.2449 32.1488 30.345 30.4432C31.1442 29.204 31.1442 27.5946 30.345 26.3555L33.7664 22.8447C36.7658 26.4992 36.31 31.9567 32.7486 35.0344C29.1872 38.1122 23.8686 37.6445 20.8692 33.9901C17.8698 30.3356 18.3255 24.8781 21.8869 21.8004C25.0252 19.0884 29.6103 19.0884 32.7486 21.8004L29.3272 25.3111ZM38.1045 17.3564L38.0034 14.2011L42.8395 9.23868L42.9189 11.7051C42.9189 12.1141 43.2421 12.4458 43.6408 12.4458L46.0444 12.5272L41.1794 17.4601L38.1045 17.3564Z" fill="#F53838"/>
</svg>