<svg height="100%" viewBox="0 0 79 76" fill="none" xmlns="http://www.w3.org/2000/svg">
    <path d="M62.9227 53.2223C58.352 53.2223 54.2587 51.229 51.4253 48.0783C48.588 44.6343 44.2881 42.437 39.4761 42.437C34.6721 42.437 30.3774 44.6276 27.5401 48.0636L27.328 47.7823C24.4907 51.1076 20.276 53.2223 15.5613 53.2223C7.01468 53.2223 0.0866699 46.2943 0.0866699 37.7476C0.0866699 29.201 7.01468 22.273 15.5613 22.273C20.4933 22.273 24.8761 24.5877 27.7094 28.1823L27.7533 28.1343C30.5907 31.4316 34.7854 33.5276 39.4761 33.5276C45.0027 33.5276 49.8374 30.6223 52.5761 26.265C55.3187 23.7916 58.9387 22.273 62.9227 22.273C71.4693 22.273 78.3973 29.201 78.3973 37.7476C78.3973 46.2943 71.4693 53.2223 62.9227 53.2223Z" fill="#D93D3F"/>
    <path d="M27.988 11.9571C27.988 5.74111 33.0267 0.702452 39.2427 0.702452C45.4574 0.702452 50.496 5.74111 50.496 11.9571C50.496 18.1731 45.4574 23.2118 39.2427 23.2118C33.0267 23.2118 27.988 18.1731 27.988 11.9571Z" fill="#F89E18"/>
    <path d="M39.2427 75.7302C33.0267 75.7302 27.988 70.6916 27.988 64.4756C27.988 58.2609 33.0267 53.2222 39.2427 53.2222C45.4574 53.2222 50.496 58.2609 50.496 64.4756C50.496 70.6916 45.4574 75.7302 39.2427 75.7302Z" fill="#B1B4AA"/>
</svg>