<svg height="100%" viewBox="0 0 35 34" fill="none" xmlns="http://www.w3.org/2000/svg">
    <path d="M17.7141 33.1912C27.0203 33.1912 34.5645 25.9291 34.5645 16.9708C34.5645 8.01258 27.0203 0.750488 17.7141 0.750488C8.40794 0.750488 0.86377 8.01258 0.86377 16.9708C0.86377 25.9291 8.40794 33.1912 17.7141 33.1912Z" fill="#F53838"/>
    <path d="M28.4788 11.9661C28.3517 11.4929 28.1001 11.0613 27.7498 10.7151C27.3994 10.3689 26.9626 10.1204 26.4837 9.99473C24.738 9.53638 17.7129 9.53638 17.7129 9.53638C17.7129 9.53638 10.6951 9.53638 8.94446 9.99966C8.46556 10.1253 8.02879 10.3738 7.67842 10.7201C7.32805 11.0663 7.07655 11.4978 6.94938 11.9711C6.48053 13.696 6.48053 17.3086 6.48053 17.3086C6.48053 17.3086 6.48053 20.9163 6.94938 22.6462C7.07724 23.1191 7.32899 23.5503 7.67925 23.8964C8.02951 24.2425 8.46591 24.4912 8.94446 24.6176C10.6902 25.0809 17.7129 25.0809 17.7129 25.0809C17.7129 25.0809 24.738 25.0612 26.4837 24.6028C26.9623 24.4765 27.3987 24.2277 27.749 23.8816C28.0992 23.5355 28.351 23.1043 28.4788 22.6314C28.9477 20.9064 28.9477 17.2938 28.9477 17.2938C28.9477 17.2938 28.9352 13.6936 28.4788 11.9661ZM15.4684 20.6255V13.972L21.299 17.2988L15.4684 20.6255Z" fill="white"/>
</svg>