<svg height="100%" viewBox="0 0 85 85" fill="none" xmlns="http://www.w3.org/2000/svg">
    <path d="M42.6538 84.303C42.6512 84.303 42.6458 84.303 42.6418 84.303C42.6378 84.303 42.6352 84.303 42.6298 84.303C31.0325 84.303 20.4773 79.5803 12.8825 71.9763C5.27569 64.379 0.552888 53.8203 0.555421 42.2163C0.552888 30.6136 5.27569 20.0536 12.8825 12.4563C20.4773 4.85232 31.0325 0.129631 42.6312 0.129631C42.6352 0.129631 42.6392 0.129631 42.6418 0.129631C42.6472 0.129631 42.6485 0.129631 42.6525 0.129631C54.2512 0.129631 64.8072 4.85232 72.4018 12.4563C80.0085 20.0536 84.7325 30.6136 84.7298 42.2163C84.7325 53.8203 80.0085 64.379 72.4018 71.9763C64.8072 79.5816 54.2525 84.303 42.6538 84.303ZM33.5192 13.5363C28.8832 15.0083 24.7405 17.575 21.368 20.943C15.9138 26.4056 12.5585 33.8896 12.5554 42.2163C12.5585 50.5443 15.9138 58.027 21.368 63.491C26.8312 68.9457 34.3152 72.3003 42.6418 72.3043C50.9698 72.3003 58.4538 68.9457 63.9165 63.491C69.3712 58.027 72.7258 50.5443 72.7298 42.2163C72.7258 33.8896 69.3712 26.4056 63.9165 20.943C62.8258 19.8536 61.6538 18.8483 60.4112 17.9363C57.6685 12.4123 51.9698 8.61497 45.3845 8.61497C40.7498 8.61497 36.5538 10.4963 33.5192 13.5363Z" fill="#B1B4AA"/>
    <path d="M45.3845 42.147C36.1258 42.147 28.6191 34.6403 28.6191 25.3803C28.6191 20.7563 30.4911 16.5696 33.5191 13.5363C36.3925 12.623 39.4551 12.131 42.6418 12.1296C49.3071 12.1323 55.4311 14.2816 60.4111 17.9363C61.5245 20.179 62.1511 22.707 62.1511 25.3803C62.1511 34.6403 54.6445 42.147 45.3845 42.147Z" fill="#CA8218"/>
    <path d="M60.4112 17.9363C55.4312 14.2816 49.3072 12.1323 42.6418 12.1296C39.4552 12.1309 36.3925 12.6229 33.5192 13.5363C36.5538 10.4963 40.7498 8.61496 45.3845 8.61496C51.9698 8.61496 57.6685 12.4123 60.4112 17.9363Z" fill="#F9AA2B"/>
</svg>